<svg width="448" height="214" viewBox="0 0 448 214" fill="none" xmlns="http://www.w3.org/2000/svg">
<rect x="0.5" y="0.5" width="447" height="213" rx="19.5" fill="#EDF2EC" stroke="black"/>
<rect x="162.5" y="156.5" width="121" height="25" rx="4.5" stroke="#E06733"/>
<path d="M212.638 168.26L212.328 168.25L212.038 167.05C211.651 166.983 211.361 166.95 211.168 166.95C210.788 166.95 210.361 167.027 209.888 167.18C209.748 167.44 209.638 167.773 209.558 168.18C209.478 168.587 209.438 168.97 209.438 169.33C209.438 171.17 209.968 172.09 211.028 172.09C211.481 172.09 211.841 172.023 212.108 171.89L212.318 170.67C212.738 170.67 213.058 170.693 213.278 170.74C213.385 171.467 213.438 172.057 213.438 172.51C213.278 172.63 212.955 172.763 212.468 172.91C211.988 173.057 211.515 173.13 211.048 173.13C209.061 173.13 208.068 171.903 208.068 169.45C208.068 168.283 208.308 167.397 208.788 166.79C209.275 166.183 210.048 165.88 211.108 165.88C211.635 165.88 212.101 165.957 212.508 166.11C212.868 166.243 213.175 166.39 213.428 166.55C213.428 167.003 213.378 167.55 213.278 168.19C213.091 168.237 212.878 168.26 212.638 168.26ZM215.966 173.12C215.4 173.12 214.96 173.003 214.646 172.77C214.34 172.537 214.186 172.143 214.186 171.59C214.186 171.063 214.37 170.633 214.736 170.3C214.95 170.107 215.246 169.993 215.626 169.96C216.006 169.927 216.53 169.91 217.196 169.91V169.75C217.196 169.343 217.13 169.047 216.996 168.86C216.87 168.667 216.643 168.57 216.316 168.57C216.15 168.57 216 168.603 215.866 168.67L215.626 169.54L214.886 169.52C214.72 169.267 214.63 168.863 214.616 168.31C214.75 168.243 215.063 168.143 215.556 168.01C216.05 167.87 216.366 167.8 216.506 167.8C217.226 167.8 217.75 167.95 218.076 168.25C218.403 168.543 218.566 169.013 218.566 169.66C218.566 170.3 218.536 171.147 218.476 172.2C218.856 172.233 219.15 172.29 219.356 172.37C219.363 172.45 219.366 172.547 219.366 172.66L219.356 172.88C218.876 173.04 218.393 173.12 217.906 173.12C217.78 173.12 217.686 173.117 217.626 173.11C217.526 172.91 217.466 172.67 217.446 172.39H217.396C217.27 172.51 217.046 172.663 216.726 172.85C216.413 173.03 216.16 173.12 215.966 173.12ZM215.466 171.65C215.466 171.87 215.533 172.033 215.666 172.14C215.806 172.24 215.963 172.29 216.136 172.29C216.31 172.29 216.516 172.213 216.756 172.06C216.996 171.9 217.19 171.757 217.336 171.63L217.286 170.71C216.76 170.737 216.363 170.787 216.096 170.86C215.676 170.947 215.466 171.21 215.466 171.65ZM221.447 165.57C221.574 165.57 221.654 165.573 221.687 165.58C221.687 165.927 221.644 166.23 221.557 166.49C221.55 166.903 221.54 167.487 221.527 168.24C221.5 169.893 221.48 171.16 221.467 172.04L222.247 172.13C222.247 172.403 222.17 172.693 222.017 173H219.527L219.437 172.45C219.85 172.297 220.15 172.197 220.337 172.15L220.147 166.6C219.834 166.567 219.57 166.517 219.357 166.45C219.357 166.203 219.38 165.963 219.427 165.73C219.82 165.623 220.494 165.57 221.447 165.57ZM224.396 165.57C224.523 165.57 224.603 165.573 224.636 165.58C224.636 165.927 224.593 166.23 224.506 166.49C224.5 166.903 224.49 167.487 224.476 168.24C224.45 169.893 224.43 171.16 224.416 172.04L225.196 172.13C225.196 172.403 225.12 172.693 224.966 173H222.476L222.386 172.45C222.8 172.297 223.1 172.197 223.286 172.15L223.096 166.6C222.783 166.567 222.52 166.517 222.306 166.45C222.306 166.203 222.33 165.963 222.376 165.73C222.77 165.623 223.443 165.57 224.396 165.57ZM232.753 167.88C232.88 167.88 232.96 167.883 232.993 167.89C232.993 168.23 232.936 168.523 232.823 168.77C232.783 170.237 232.75 171.32 232.723 172.02C233.023 172.047 233.286 172.097 233.513 172.17L233.493 172.87C233.086 172.997 232.736 173.06 232.443 173.06C232.15 173.06 231.95 173.053 231.843 173.04C231.763 172.88 231.696 172.72 231.643 172.56C231.09 172.933 230.69 173.12 230.443 173.12C229.25 173.12 228.653 172.517 228.653 171.31C228.653 170.983 228.68 170.18 228.733 168.9C228.38 168.9 228.056 168.853 227.763 168.76C227.763 168.593 227.786 168.353 227.833 168.04C228.226 167.933 228.9 167.88 229.853 167.88C229.98 167.88 230.06 167.883 230.093 167.89C230.093 168.217 230.036 168.52 229.923 168.8V170.82C229.923 171.247 229.966 171.56 230.053 171.76C230.146 171.953 230.34 172.05 230.633 172.05C230.933 172.05 231.24 171.947 231.553 171.74L231.493 168.9C231.2 168.887 230.923 168.84 230.663 168.76C230.663 168.593 230.686 168.353 230.733 168.04C231.126 167.933 231.8 167.88 232.753 167.88ZM237.6 168.23L237.61 168.54C237.61 169.06 237.57 169.4 237.49 169.56C237.27 169.64 236.964 169.68 236.57 169.68L236.25 168.67C236.164 168.637 236.044 168.62 235.89 168.62C235.737 168.62 235.61 168.667 235.51 168.76C235.417 168.853 235.37 168.963 235.37 169.09C235.37 169.217 235.42 169.333 235.52 169.44C235.62 169.54 235.724 169.62 235.83 169.68C235.937 169.74 236.09 169.82 236.29 169.92C236.497 170.013 236.65 170.087 236.75 170.14C236.857 170.193 236.99 170.273 237.15 170.38C237.317 170.487 237.444 170.587 237.53 170.68C237.744 170.933 237.85 171.21 237.85 171.51C237.85 172.023 237.654 172.42 237.26 172.7C236.874 172.98 236.397 173.12 235.83 173.12C235.53 173.12 235.2 173.067 234.84 172.96C234.487 172.853 234.187 172.71 233.94 172.53C233.94 172.05 233.987 171.603 234.08 171.19C234.347 171.157 234.564 171.14 234.73 171.14C234.897 171.14 235.01 171.143 235.07 171.15L235.19 172.12C235.357 172.18 235.557 172.21 235.79 172.21C236.024 172.21 236.207 172.163 236.34 172.07C236.48 171.977 236.55 171.847 236.55 171.68C236.55 171.507 236.474 171.363 236.32 171.25C236.167 171.137 235.957 171.02 235.69 170.9C235.424 170.773 235.217 170.67 235.07 170.59C234.924 170.503 234.767 170.393 234.6 170.26C234.26 170 234.09 169.68 234.09 169.3C234.09 168.827 234.254 168.46 234.58 168.2C234.914 167.933 235.36 167.8 235.92 167.8C236.48 167.8 237.04 167.943 237.6 168.23Z" fill="#717171"/>
<path d="M178.636 31.3636V43H177.273L170.932 33.8636H170.818V43H169.409V31.3636H170.773L177.136 40.5227H177.25V31.3636H178.636ZM185.733 43.1818C184.892 43.1818 184.167 42.9962 183.557 42.625C182.951 42.25 182.483 41.7273 182.154 41.0568C181.828 40.3826 181.665 39.5985 181.665 38.7045C181.665 37.8106 181.828 37.0227 182.154 36.3409C182.483 35.6553 182.942 35.1212 183.529 34.7386C184.12 34.3523 184.809 34.1591 185.597 34.1591C186.051 34.1591 186.5 34.2348 186.943 34.3864C187.387 34.5379 187.79 34.7841 188.154 35.125C188.517 35.4621 188.807 35.9091 189.023 36.4659C189.239 37.0227 189.347 37.7083 189.347 38.5227V39.0909H182.62V37.9318H187.983C187.983 37.4394 187.885 37 187.688 36.6136C187.495 36.2273 187.218 35.9223 186.858 35.6989C186.502 35.4754 186.082 35.3636 185.597 35.3636C185.063 35.3636 184.601 35.4962 184.211 35.7614C183.824 36.0227 183.527 36.3636 183.318 36.7841C183.11 37.2045 183.006 37.6553 183.006 38.1364V38.9091C183.006 39.5682 183.12 40.1269 183.347 40.5852C183.578 41.0398 183.898 41.3864 184.307 41.625C184.716 41.8598 185.192 41.9773 185.733 41.9773C186.086 41.9773 186.404 41.928 186.688 41.8295C186.976 41.7273 187.224 41.5758 187.432 41.375C187.64 41.1705 187.801 40.9167 187.915 40.6136L189.211 40.9773C189.074 41.4167 188.845 41.803 188.523 42.1364C188.201 42.4659 187.803 42.7235 187.33 42.9091C186.856 43.0909 186.324 43.1818 185.733 43.1818ZM194.164 43L191.505 34.2727H192.914L194.8 40.9545H194.891L196.755 34.2727H198.187L200.028 40.9318H200.118L202.005 34.2727H203.414L200.755 43H199.437L197.528 36.2955H197.391L195.482 43H194.164ZM210.468 31.3636H212.082L215.309 36.7955H215.446L218.673 31.3636H220.287L216.082 38.2045V43H214.673V38.2045L210.468 31.3636ZM225.038 43.1818C224.25 43.1818 223.559 42.9943 222.964 42.6193C222.374 42.2443 221.911 41.7197 221.578 41.0455C221.249 40.3712 221.084 39.5833 221.084 38.6818C221.084 37.7727 221.249 36.9792 221.578 36.3011C221.911 35.6231 222.374 35.0966 222.964 34.7216C223.559 34.3466 224.25 34.1591 225.038 34.1591C225.826 34.1591 226.516 34.3466 227.107 34.7216C227.701 35.0966 228.163 35.6231 228.493 36.3011C228.826 36.9792 228.993 37.7727 228.993 38.6818C228.993 39.5833 228.826 40.3712 228.493 41.0455C228.163 41.7197 227.701 42.2443 227.107 42.6193C226.516 42.9943 225.826 43.1818 225.038 43.1818ZM225.038 41.9773C225.637 41.9773 226.129 41.8239 226.516 41.517C226.902 41.2102 227.188 40.8068 227.374 40.3068C227.559 39.8068 227.652 39.2652 227.652 38.6818C227.652 38.0985 227.559 37.5549 227.374 37.0511C227.188 36.5473 226.902 36.1402 226.516 35.8295C226.129 35.5189 225.637 35.3636 225.038 35.3636C224.44 35.3636 223.947 35.5189 223.561 35.8295C223.175 36.1402 222.889 36.5473 222.703 37.0511C222.518 37.5549 222.425 38.0985 222.425 38.6818C222.425 39.2652 222.518 39.8068 222.703 40.3068C222.889 40.8068 223.175 41.2102 223.561 41.517C223.947 41.8239 224.44 41.9773 225.038 41.9773ZM231.84 43V34.2727H233.135V35.5909H233.226C233.385 35.1591 233.673 34.8087 234.09 34.5398C234.506 34.2708 234.976 34.1364 235.499 34.1364C235.597 34.1364 235.72 34.1383 235.868 34.142C236.016 34.1458 236.128 34.1515 236.203 34.1591V35.5227C236.158 35.5114 236.054 35.4943 235.891 35.4716C235.732 35.4451 235.563 35.4318 235.385 35.4318C234.961 35.4318 234.582 35.5208 234.249 35.6989C233.919 35.8731 233.658 36.1155 233.465 36.4261C233.275 36.733 233.181 37.0833 233.181 37.4773V43H231.84ZM239.843 39.8182L239.82 38.1591H240.093L243.911 34.2727H245.57L241.502 38.3864H241.388L239.843 39.8182ZM238.593 43V31.3636H239.934V43H238.593ZM244.138 43L240.729 38.6818L241.684 37.75L245.843 43H244.138ZM262.941 35H261.532C261.449 34.5947 261.303 34.2386 261.095 33.9318C260.89 33.625 260.64 33.3674 260.345 33.1591C260.053 32.947 259.729 32.7879 259.373 32.6818C259.017 32.5758 258.646 32.5227 258.26 32.5227C257.555 32.5227 256.917 32.7008 256.345 33.0568C255.777 33.4129 255.324 33.9375 254.987 34.6307C254.654 35.3239 254.487 36.1742 254.487 37.1818C254.487 38.1894 254.654 39.0398 254.987 39.733C255.324 40.4261 255.777 40.9508 256.345 41.3068C256.917 41.6629 257.555 41.8409 258.26 41.8409C258.646 41.8409 259.017 41.7879 259.373 41.6818C259.729 41.5758 260.053 41.4186 260.345 41.2102C260.64 40.9981 260.89 40.7386 261.095 40.4318C261.303 40.1212 261.449 39.7652 261.532 39.3636H262.941C262.835 39.9583 262.642 40.4905 262.362 40.9602C262.082 41.4299 261.733 41.8295 261.316 42.1591C260.9 42.4848 260.432 42.733 259.913 42.9034C259.398 43.0739 258.847 43.1591 258.26 43.1591C257.267 43.1591 256.385 42.9167 255.612 42.4318C254.839 41.947 254.231 41.2576 253.788 40.3636C253.345 39.4697 253.123 38.4091 253.123 37.1818C253.123 35.9545 253.345 34.8939 253.788 34C254.231 33.1061 254.839 32.4167 255.612 31.9318C256.385 31.447 257.267 31.2045 258.26 31.2045C258.847 31.2045 259.398 31.2898 259.913 31.4602C260.432 31.6307 260.9 31.8807 261.316 32.2102C261.733 32.536 262.082 32.9337 262.362 33.4034C262.642 33.8693 262.835 34.4015 262.941 35ZM265.837 43V34.2727H267.178V43H265.837ZM266.518 32.8182C266.257 32.8182 266.032 32.7292 265.842 32.5511C265.657 32.3731 265.564 32.1591 265.564 31.9091C265.564 31.6591 265.657 31.4451 265.842 31.267C266.032 31.089 266.257 31 266.518 31C266.78 31 267.003 31.089 267.189 31.267C267.378 31.4451 267.473 31.6591 267.473 31.9091C267.473 32.1591 267.378 32.3731 267.189 32.5511C267.003 32.7292 266.78 32.8182 266.518 32.8182ZM274.229 34.2727V35.4091H269.706V34.2727H274.229ZM271.024 32.1818H272.365V40.5C272.365 40.8788 272.42 41.1629 272.53 41.3523C272.644 41.5379 272.788 41.6629 272.962 41.7273C273.14 41.7879 273.327 41.8182 273.524 41.8182C273.672 41.8182 273.793 41.8106 273.888 41.7955C273.983 41.7765 274.059 41.7614 274.115 41.75L274.388 42.9545C274.297 42.9886 274.17 43.0227 274.007 43.0568C273.845 43.0947 273.638 43.1136 273.388 43.1136C273.009 43.1136 272.638 43.0322 272.274 42.8693C271.915 42.7064 271.615 42.4583 271.377 42.125C271.142 41.7917 271.024 41.3712 271.024 40.8636V32.1818ZM277.91 46.2727C277.682 46.2727 277.48 46.2538 277.302 46.2159C277.124 46.1818 277.001 46.1477 276.932 46.1136L277.273 44.9318C277.599 45.0152 277.887 45.0455 278.137 45.0227C278.387 45 278.609 44.8883 278.802 44.6875C278.999 44.4905 279.179 44.1705 279.341 43.7273L279.591 43.0455L276.364 34.2727H277.819L280.228 41.2273H280.319L282.728 34.2727H284.182L280.478 44.2727C280.311 44.7235 280.105 45.0966 279.859 45.392C279.612 45.6913 279.326 45.9129 279.001 46.0568C278.679 46.2008 278.315 46.2727 277.91 46.2727Z" fill="#717171"/>
<path d="M45.7727 35H44.3636C44.2803 34.5947 44.1345 34.2386 43.9261 33.9318C43.7216 33.625 43.4716 33.3674 43.1761 33.1591C42.8845 32.947 42.5606 32.7879 42.2045 32.6818C41.8485 32.5758 41.4773 32.5227 41.0909 32.5227C40.3864 32.5227 39.7481 32.7008 39.1761 33.0568C38.608 33.4129 38.1553 33.9375 37.8182 34.6307C37.4848 35.3239 37.3182 36.1742 37.3182 37.1818C37.3182 38.1894 37.4848 39.0398 37.8182 39.733C38.1553 40.4261 38.608 40.9508 39.1761 41.3068C39.7481 41.6629 40.3864 41.8409 41.0909 41.8409C41.4773 41.8409 41.8485 41.7879 42.2045 41.6818C42.5606 41.5758 42.8845 41.4186 43.1761 41.2102C43.4716 40.9981 43.7216 40.7386 43.9261 40.4318C44.1345 40.1212 44.2803 39.7652 44.3636 39.3636H45.7727C45.6667 39.9583 45.4735 40.4905 45.1932 40.9602C44.9129 41.4299 44.5644 41.8295 44.1477 42.1591C43.7311 42.4848 43.2633 42.733 42.7443 42.9034C42.2292 43.0739 41.678 43.1591 41.0909 43.1591C40.0985 43.1591 39.2159 42.9167 38.4432 42.4318C37.6705 41.947 37.0625 41.2576 36.6193 40.3636C36.1761 39.4697 35.9545 38.4091 35.9545 37.1818C35.9545 35.9545 36.1761 34.8939 36.6193 34C37.0625 33.1061 37.6705 32.4167 38.4432 31.9318C39.2159 31.447 40.0985 31.2045 41.0909 31.2045C41.678 31.2045 42.2292 31.2898 42.7443 31.4602C43.2633 31.6307 43.7311 31.8807 44.1477 32.2102C44.5644 32.536 44.9129 32.9337 45.1932 33.4034C45.4735 33.8693 45.6667 34.4015 45.7727 35ZM48.6679 43V34.2727H50.0088V43H48.6679ZM49.3497 32.8182C49.0884 32.8182 48.863 32.7292 48.6736 32.5511C48.488 32.3731 48.3952 32.1591 48.3952 31.9091C48.3952 31.6591 48.488 31.4451 48.6736 31.267C48.863 31.089 49.0884 31 49.3497 31C49.6111 31 49.8346 31.089 50.0202 31.267C50.2096 31.4451 50.3043 31.6591 50.3043 31.9091C50.3043 32.1591 50.2096 32.3731 50.0202 32.5511C49.8346 32.7292 49.6111 32.8182 49.3497 32.8182ZM57.0602 34.2727V35.4091H52.5375V34.2727H57.0602ZM53.8557 32.1818H55.1966V40.5C55.1966 40.8788 55.2515 41.1629 55.3614 41.3523C55.475 41.5379 55.6189 41.6629 55.7932 41.7273C55.9712 41.7879 56.1587 41.8182 56.3557 41.8182C56.5034 41.8182 56.6246 41.8106 56.7193 41.7955C56.814 41.7765 56.8898 41.7614 56.9466 41.75L57.2193 42.9545C57.1284 42.9886 57.0015 43.0227 56.8386 43.0568C56.6758 43.0947 56.4693 43.1136 56.2193 43.1136C55.8405 43.1136 55.4693 43.0322 55.1057 42.8693C54.7458 42.7064 54.4466 42.4583 54.208 42.125C53.9731 41.7917 53.8557 41.3712 53.8557 40.8636V32.1818ZM60.7409 46.2727C60.5136 46.2727 60.311 46.2538 60.133 46.2159C59.9549 46.1818 59.8318 46.1477 59.7636 46.1136L60.1045 44.9318C60.4303 45.0152 60.7182 45.0455 60.9682 45.0227C61.2182 45 61.4398 44.8883 61.633 44.6875C61.8299 44.4905 62.0098 44.1705 62.1727 43.7273L62.4227 43.0455L59.1955 34.2727H60.65L63.0591 41.2273H63.15L65.5591 34.2727H67.0136L63.3091 44.2727C63.1424 44.7235 62.936 45.0966 62.6898 45.392C62.4436 45.6913 62.1576 45.9129 61.8318 46.0568C61.5098 46.2008 61.1462 46.2727 60.7409 46.2727ZM70.5608 43.0909C70.2805 43.0909 70.04 42.9905 69.8392 42.7898C69.6384 42.589 69.5381 42.3485 69.5381 42.0682C69.5381 41.7879 69.6384 41.5473 69.8392 41.3466C70.04 41.1458 70.2805 41.0455 70.5608 41.0455C70.8411 41.0455 71.0816 41.1458 71.2824 41.3466C71.4831 41.5473 71.5835 41.7879 71.5835 42.0682C71.5835 42.2538 71.5362 42.4242 71.4415 42.5795C71.3506 42.7348 71.2275 42.8598 71.0722 42.9545C70.9206 43.0455 70.7502 43.0909 70.5608 43.0909ZM70.5608 36.6136C70.2805 36.6136 70.04 36.5133 69.8392 36.3125C69.6384 36.1117 69.5381 35.8712 69.5381 35.5909C69.5381 35.3106 69.6384 35.0701 69.8392 34.8693C70.04 34.6686 70.2805 34.5682 70.5608 34.5682C70.8411 34.5682 71.0816 34.6686 71.2824 34.8693C71.4831 35.0701 71.5835 35.3106 71.5835 35.5909C71.5835 35.7765 71.5362 35.947 71.4415 36.1023C71.3506 36.2576 71.2275 36.3826 71.0722 36.4773C70.9206 36.5682 70.7502 36.6136 70.5608 36.6136Z" fill="black"/>
<path d="M169.636 80.9545V73.4545H170.909V80.9545H169.636ZM166.523 77.8409V76.5682H174.023V77.8409H166.523ZM181.642 71.3636V83H180.233V72.8409H180.165L177.324 74.7273V73.2955L180.233 71.3636H181.642ZM191.089 83V81.9773L194.93 77.7727C195.381 77.2803 195.752 76.8523 196.043 76.4886C196.335 76.1212 196.551 75.7765 196.691 75.4545C196.835 75.1288 196.907 74.7879 196.907 74.4318C196.907 74.0227 196.809 73.6686 196.612 73.3693C196.418 73.0701 196.153 72.839 195.816 72.6761C195.479 72.5133 195.1 72.4318 194.68 72.4318C194.233 72.4318 193.843 72.5246 193.509 72.7102C193.18 72.892 192.924 73.1477 192.742 73.4773C192.564 73.8068 192.475 74.1932 192.475 74.6364H191.134C191.134 73.9545 191.292 73.3561 191.606 72.8409C191.92 72.3258 192.348 71.9242 192.89 71.6364C193.436 71.3485 194.047 71.2045 194.725 71.2045C195.407 71.2045 196.011 71.3485 196.538 71.6364C197.064 71.9242 197.477 72.3125 197.776 72.8011C198.076 73.2898 198.225 73.8333 198.225 74.4318C198.225 74.8598 198.148 75.2784 197.992 75.6875C197.841 76.0928 197.576 76.5455 197.197 77.0455C196.822 77.5417 196.301 78.1477 195.634 78.8636L193.021 81.6591V81.75H198.43V83H191.089ZM205.667 71.3636V83H204.258V72.8409H204.19L201.349 74.7273V73.2955L204.258 71.3636H205.667ZM209.814 83V81.9773L213.655 77.7727C214.106 77.2803 214.477 76.8523 214.768 76.4886C215.06 76.1212 215.276 75.7765 215.416 75.4545C215.56 75.1288 215.632 74.7879 215.632 74.4318C215.632 74.0227 215.534 73.6686 215.337 73.3693C215.143 73.0701 214.878 72.839 214.541 72.6761C214.204 72.5133 213.825 72.4318 213.405 72.4318C212.958 72.4318 212.568 72.5246 212.234 72.7102C211.905 72.892 211.649 73.1477 211.467 73.4773C211.289 73.8068 211.2 74.1932 211.2 74.6364H209.859C209.859 73.9545 210.017 73.3561 210.331 72.8409C210.645 72.3258 211.073 71.9242 211.615 71.6364C212.161 71.3485 212.772 71.2045 213.45 71.2045C214.132 71.2045 214.736 71.3485 215.263 71.6364C215.789 71.9242 216.202 72.3125 216.501 72.8011C216.801 73.2898 216.95 73.8333 216.95 74.4318C216.95 74.8598 216.873 75.2784 216.717 75.6875C216.566 76.0928 216.301 76.5455 215.922 77.0455C215.547 77.5417 215.026 78.1477 214.359 78.8636L211.746 81.6591V81.75H217.155V83H209.814ZM225.329 80.6136V79.4545L230.442 71.3636H231.283V73.1591H230.715L226.851 79.2727V79.3636H233.738V80.6136H225.329ZM230.806 83V80.2614V79.7216V71.3636H232.147V83H230.806ZM240.303 83.1591C239.637 83.1591 239.036 83.0265 238.502 82.7614C237.968 82.4962 237.54 82.1326 237.218 81.6705C236.896 81.2083 236.72 80.6818 236.69 80.0909H238.053C238.106 80.6174 238.345 81.053 238.769 81.3977C239.197 81.7386 239.709 81.9091 240.303 81.9091C240.781 81.9091 241.205 81.7973 241.576 81.5739C241.951 81.3504 242.245 81.0436 242.457 80.6534C242.673 80.2595 242.781 79.8144 242.781 79.3182C242.781 78.8106 242.669 78.358 242.445 77.9602C242.226 77.5587 241.923 77.2424 241.536 77.0114C241.15 76.7803 240.709 76.6629 240.213 76.6591C239.856 76.6553 239.491 76.7102 239.116 76.8239C238.741 76.9337 238.432 77.0758 238.19 77.25L236.872 77.0909L237.576 71.3636H243.622V72.6136H238.758L238.349 76.0455H238.417C238.656 75.8561 238.955 75.6989 239.315 75.5739C239.675 75.4489 240.05 75.3864 240.44 75.3864C241.152 75.3864 241.786 75.5568 242.343 75.8977C242.904 76.2348 243.343 76.697 243.661 77.2841C243.983 77.8712 244.144 78.5417 244.144 79.2955C244.144 80.0379 243.978 80.7008 243.644 81.2841C243.315 81.8636 242.86 82.322 242.281 82.6591C241.701 82.9924 241.042 83.1591 240.303 83.1591ZM251.065 83.1591C250.588 83.1515 250.111 83.0606 249.633 82.8864C249.156 82.7121 248.72 82.4186 248.326 82.0057C247.932 81.589 247.616 81.0265 247.378 80.3182C247.139 79.6061 247.02 78.7121 247.02 77.6364C247.02 76.6061 247.116 75.6932 247.309 74.8977C247.503 74.0985 247.783 73.4261 248.15 72.8807C248.518 72.3314 248.961 71.9148 249.48 71.6307C250.003 71.3466 250.592 71.2045 251.247 71.2045C251.898 71.2045 252.478 71.3352 252.986 71.5966C253.497 71.8542 253.914 72.214 254.236 72.6761C254.557 73.1383 254.766 73.6705 254.861 74.2727H253.474C253.345 73.75 253.095 73.3163 252.724 72.9716C252.353 72.6269 251.861 72.4545 251.247 72.4545C250.345 72.4545 249.635 72.8466 249.116 73.6307C248.601 74.4148 248.342 75.5152 248.338 76.9318H248.429C248.641 76.6098 248.893 76.3352 249.184 76.108C249.48 75.8769 249.806 75.6989 250.162 75.5739C250.518 75.4489 250.895 75.3864 251.292 75.3864C251.959 75.3864 252.569 75.553 253.122 75.8864C253.675 76.2159 254.118 76.6723 254.451 77.2557C254.785 77.8352 254.951 78.5 254.951 79.25C254.951 79.9697 254.79 80.6288 254.468 81.2273C254.146 81.822 253.694 82.2955 253.111 82.6477C252.531 82.9962 251.849 83.1667 251.065 83.1591ZM251.065 81.9091C251.542 81.9091 251.97 81.7898 252.349 81.5511C252.732 81.3125 253.033 80.9924 253.253 80.5909C253.476 80.1894 253.588 79.7424 253.588 79.25C253.588 78.7689 253.48 78.3314 253.264 77.9375C253.052 77.5398 252.758 77.2235 252.383 76.9886C252.012 76.7538 251.588 76.6364 251.111 76.6364C250.751 76.6364 250.415 76.7083 250.105 76.8523C249.794 76.9924 249.521 77.1856 249.287 77.4318C249.056 77.678 248.874 77.9602 248.741 78.2784C248.609 78.5928 248.542 78.9242 248.542 79.2727C248.542 79.7348 248.65 80.1667 248.866 80.5682C249.086 80.9697 249.385 81.2936 249.764 81.5398C250.146 81.786 250.58 81.9091 251.065 81.9091ZM267.081 83.1591C266.225 83.1591 265.496 82.9261 264.894 82.4602C264.291 81.9905 263.831 81.3106 263.513 80.4205C263.195 79.5265 263.036 78.447 263.036 77.1818C263.036 75.9242 263.195 74.8504 263.513 73.9602C263.835 73.0663 264.297 72.3845 264.899 71.9148C265.505 71.4413 266.233 71.2045 267.081 71.2045C267.93 71.2045 268.655 71.4413 269.257 71.9148C269.863 72.3845 270.326 73.0663 270.644 73.9602C270.966 74.8504 271.127 75.9242 271.127 77.1818C271.127 78.447 270.968 79.5265 270.649 80.4205C270.331 81.3106 269.871 81.9905 269.269 82.4602C268.666 82.9261 267.937 83.1591 267.081 83.1591ZM267.081 81.9091C267.93 81.9091 268.589 81.5 269.059 80.6818C269.528 79.8636 269.763 78.697 269.763 77.1818C269.763 76.1742 269.655 75.3163 269.439 74.608C269.227 73.8996 268.92 73.3598 268.519 72.9886C268.121 72.6174 267.642 72.4318 267.081 72.4318C266.24 72.4318 265.583 72.8466 265.11 73.6761C264.636 74.5019 264.399 75.6705 264.399 77.1818C264.399 78.1894 264.505 79.0455 264.718 79.75C264.93 80.4545 265.235 80.9905 265.632 81.358C266.034 81.7254 266.517 81.9091 267.081 81.9091ZM277.881 83.1591C277.025 83.1591 276.296 82.9261 275.694 82.4602C275.091 81.9905 274.631 81.3106 274.313 80.4205C273.995 79.5265 273.836 78.447 273.836 77.1818C273.836 75.9242 273.995 74.8504 274.313 73.9602C274.635 73.0663 275.097 72.3845 275.699 71.9148C276.305 71.4413 277.033 71.2045 277.881 71.2045C278.73 71.2045 279.455 71.4413 280.057 71.9148C280.663 72.3845 281.126 73.0663 281.444 73.9602C281.766 74.8504 281.927 75.9242 281.927 77.1818C281.927 78.447 281.768 79.5265 281.449 80.4205C281.131 81.3106 280.671 81.9905 280.069 82.4602C279.466 82.9261 278.737 83.1591 277.881 83.1591ZM277.881 81.9091C278.73 81.9091 279.389 81.5 279.859 80.6818C280.328 79.8636 280.563 78.697 280.563 77.1818C280.563 76.1742 280.455 75.3163 280.239 74.608C280.027 73.8996 279.72 73.3598 279.319 72.9886C278.921 72.6174 278.442 72.4318 277.881 72.4318C277.04 72.4318 276.383 72.8466 275.91 73.6761C275.436 74.5019 275.199 75.6705 275.199 77.1818C275.199 78.1894 275.305 79.0455 275.518 79.75C275.73 80.4545 276.035 80.9905 276.432 81.358C276.834 81.7254 277.317 81.9091 277.881 81.9091ZM288.681 83.1591C287.825 83.1591 287.096 82.9261 286.494 82.4602C285.891 81.9905 285.431 81.3106 285.113 80.4205C284.795 79.5265 284.636 78.447 284.636 77.1818C284.636 75.9242 284.795 74.8504 285.113 73.9602C285.435 73.0663 285.897 72.3845 286.499 71.9148C287.105 71.4413 287.833 71.2045 288.681 71.2045C289.53 71.2045 290.255 71.4413 290.857 71.9148C291.463 72.3845 291.926 73.0663 292.244 73.9602C292.566 74.8504 292.727 75.9242 292.727 77.1818C292.727 78.447 292.568 79.5265 292.249 80.4205C291.931 81.3106 291.471 81.9905 290.869 82.4602C290.266 82.9261 289.537 83.1591 288.681 83.1591ZM288.681 81.9091C289.53 81.9091 290.189 81.5 290.659 80.6818C291.128 79.8636 291.363 78.697 291.363 77.1818C291.363 76.1742 291.255 75.3163 291.039 74.608C290.827 73.8996 290.52 73.3598 290.119 72.9886C289.721 72.6174 289.242 72.4318 288.681 72.4318C287.84 72.4318 287.183 72.8466 286.71 73.6761C286.236 74.5019 285.999 75.6705 285.999 77.1818C285.999 78.1894 286.105 79.0455 286.318 79.75C286.53 80.4545 286.835 80.9905 287.232 81.358C287.634 81.7254 288.117 81.9091 288.681 81.9091ZM295.686 83V81.9773L299.527 77.7727C299.977 77.2803 300.349 76.8523 300.64 76.4886C300.932 76.1212 301.148 75.7765 301.288 75.4545C301.432 75.1288 301.504 74.7879 301.504 74.4318C301.504 74.0227 301.405 73.6686 301.209 73.3693C301.015 73.0701 300.75 72.839 300.413 72.6761C300.076 72.5133 299.697 72.4318 299.277 72.4318C298.83 72.4318 298.44 72.5246 298.106 72.7102C297.777 72.892 297.521 73.1477 297.339 73.4773C297.161 73.8068 297.072 74.1932 297.072 74.6364H295.731C295.731 73.9545 295.888 73.3561 296.203 72.8409C296.517 72.3258 296.945 71.9242 297.487 71.6364C298.032 71.3485 298.644 71.2045 299.322 71.2045C300.004 71.2045 300.608 71.3485 301.135 71.6364C301.661 71.9242 302.074 72.3125 302.373 72.8011C302.673 73.2898 302.822 73.8333 302.822 74.4318C302.822 74.8598 302.745 75.2784 302.589 75.6875C302.438 76.0928 302.173 76.5455 301.794 77.0455C301.419 77.5417 300.898 78.1477 300.231 78.8636L297.618 81.6591V81.75H303.027V83H295.686Z" fill="#717171"/>
<path d="M34.4091 83V71.3636H38.3409C39.2538 71.3636 40 71.5284 40.5795 71.858C41.1629 72.1837 41.5947 72.625 41.875 73.1818C42.1553 73.7386 42.2955 74.3598 42.2955 75.0455C42.2955 75.7311 42.1553 76.3542 41.875 76.9148C41.5985 77.4754 41.1705 77.9223 40.5909 78.2557C40.0114 78.5852 39.2689 78.75 38.3636 78.75H35.5455V77.5H38.3182C38.9432 77.5 39.4451 77.392 39.8239 77.1761C40.2027 76.9602 40.4773 76.6686 40.6477 76.3011C40.822 75.9299 40.9091 75.5114 40.9091 75.0455C40.9091 74.5795 40.822 74.1629 40.6477 73.7955C40.4773 73.428 40.2008 73.1402 39.8182 72.9318C39.4356 72.7197 38.928 72.6136 38.2955 72.6136H35.8182V83H34.4091ZM46.5244 77.75V83H45.1835V71.3636H46.5244V75.6364H46.6381C46.8426 75.1856 47.1494 74.8277 47.5585 74.5625C47.9714 74.2936 48.5206 74.1591 49.2063 74.1591C49.8009 74.1591 50.3218 74.2784 50.7688 74.517C51.2157 74.7519 51.5623 75.1136 51.8085 75.6023C52.0585 76.0871 52.1835 76.7045 52.1835 77.4545V83H50.8426V77.5455C50.8426 76.8523 50.6627 76.3163 50.3028 75.9375C49.9468 75.5549 49.4525 75.3636 48.8199 75.3636C48.3805 75.3636 47.9866 75.4564 47.6381 75.642C47.2934 75.8277 47.0206 76.0985 46.8199 76.4545C46.6229 76.8106 46.5244 77.2424 46.5244 77.75ZM58.9821 83.1818C58.1942 83.1818 57.5029 82.9943 56.9082 82.6193C56.3173 82.2443 55.8552 81.7197 55.5219 81.0455C55.1923 80.3712 55.0276 79.5833 55.0276 78.6818C55.0276 77.7727 55.1923 76.9792 55.5219 76.3011C55.8552 75.6231 56.3173 75.0966 56.9082 74.7216C57.5029 74.3466 58.1942 74.1591 58.9821 74.1591C59.77 74.1591 60.4594 74.3466 61.0503 74.7216C61.645 75.0966 62.1071 75.6231 62.4366 76.3011C62.77 76.9792 62.9366 77.7727 62.9366 78.6818C62.9366 79.5833 62.77 80.3712 62.4366 81.0455C62.1071 81.7197 61.645 82.2443 61.0503 82.6193C60.4594 82.9943 59.77 83.1818 58.9821 83.1818ZM58.9821 81.9773C59.5806 81.9773 60.073 81.8239 60.4594 81.517C60.8457 81.2102 61.1317 80.8068 61.3173 80.3068C61.5029 79.8068 61.5957 79.2652 61.5957 78.6818C61.5957 78.0985 61.5029 77.5549 61.3173 77.0511C61.1317 76.5473 60.8457 76.1402 60.4594 75.8295C60.073 75.5189 59.5806 75.3636 58.9821 75.3636C58.3836 75.3636 57.8912 75.5189 57.5048 75.8295C57.1185 76.1402 56.8325 76.5473 56.6469 77.0511C56.4613 77.5549 56.3685 78.0985 56.3685 78.6818C56.3685 79.2652 56.4613 79.8068 56.6469 80.3068C56.8325 80.8068 57.1185 81.2102 57.5048 81.517C57.8912 81.8239 58.3836 81.9773 58.9821 81.9773ZM67.1244 77.75V83H65.7835V74.2727H67.079V75.6364H67.1926C67.3972 75.1932 67.7078 74.8371 68.1244 74.5682C68.5411 74.2955 69.079 74.1591 69.7381 74.1591C70.329 74.1591 70.846 74.2803 71.2892 74.5227C71.7324 74.7614 72.0771 75.125 72.3233 75.6136C72.5695 76.0985 72.6926 76.7121 72.6926 77.4545V83H71.3517V77.5455C71.3517 76.8598 71.1737 76.3258 70.8176 75.9432C70.4616 75.5568 69.9729 75.3636 69.3517 75.3636C68.9237 75.3636 68.5411 75.4564 68.204 75.642C67.8706 75.8277 67.6074 76.0985 67.4142 76.4545C67.221 76.8106 67.1244 77.2424 67.1244 77.75ZM79.602 83.1818C78.7611 83.1818 78.0357 82.9962 77.4259 82.625C76.8198 82.25 76.352 81.7273 76.0224 81.0568C75.6967 80.3826 75.5338 79.5985 75.5338 78.7045C75.5338 77.8106 75.6967 77.0227 76.0224 76.3409C76.352 75.6553 76.8103 75.1212 77.3974 74.7386C77.9884 74.3523 78.6777 74.1591 79.4656 74.1591C79.9202 74.1591 80.369 74.2348 80.8122 74.3864C81.2554 74.5379 81.6588 74.7841 82.0224 75.125C82.3861 75.4621 82.6759 75.9091 82.8918 76.4659C83.1077 77.0227 83.2156 77.7083 83.2156 78.5227V79.0909H76.4884V77.9318H81.852C81.852 77.4394 81.7535 77 81.5565 76.6136C81.3634 76.2273 81.0868 75.9223 80.727 75.6989C80.3709 75.4754 79.9505 75.3636 79.4656 75.3636C78.9315 75.3636 78.4694 75.4962 78.0793 75.7614C77.6929 76.0227 77.3956 76.3636 77.1872 76.7841C76.9789 77.2045 76.8747 77.6553 76.8747 78.1364V78.9091C76.8747 79.5682 76.9884 80.1269 77.2156 80.5852C77.4467 81.0398 77.7668 81.3864 78.1759 81.625C78.5849 81.8598 79.0603 81.9773 79.602 81.9773C79.9543 81.9773 80.2724 81.928 80.5565 81.8295C80.8444 81.7273 81.0925 81.5758 81.3009 81.375C81.5092 81.1705 81.6702 80.9167 81.7838 80.6136L83.0793 80.9773C82.9429 81.4167 82.7137 81.803 82.3918 82.1364C82.0698 82.4659 81.6721 82.7235 81.1986 82.9091C80.7251 83.0909 80.1929 83.1818 79.602 83.1818ZM87.0327 83.0909C86.7524 83.0909 86.5118 82.9905 86.3111 82.7898C86.1103 82.589 86.0099 82.3485 86.0099 82.0682C86.0099 81.7879 86.1103 81.5473 86.3111 81.3466C86.5118 81.1458 86.7524 81.0455 87.0327 81.0455C87.313 81.0455 87.5535 81.1458 87.7543 81.3466C87.955 81.5473 88.0554 81.7879 88.0554 82.0682C88.0554 82.2538 88.008 82.4242 87.9134 82.5795C87.8224 82.7348 87.6993 82.8598 87.544 82.9545C87.3925 83.0455 87.2221 83.0909 87.0327 83.0909ZM87.0327 76.6136C86.7524 76.6136 86.5118 76.5133 86.3111 76.3125C86.1103 76.1117 86.0099 75.8712 86.0099 75.5909C86.0099 75.3106 86.1103 75.0701 86.3111 74.8693C86.5118 74.6686 86.7524 74.5682 87.0327 74.5682C87.313 74.5682 87.5535 74.6686 87.7543 74.8693C87.955 75.0701 88.0554 75.3106 88.0554 75.5909C88.0554 75.7765 88.008 75.947 87.9134 76.1023C87.8224 76.2576 87.6993 76.3826 87.544 76.4773C87.3925 76.5682 87.2221 76.6136 87.0327 76.6136Z" fill="black"/>
<path d="M169.909 111.205C170.386 111.208 170.864 111.299 171.341 111.477C171.818 111.655 172.254 111.951 172.648 112.364C173.042 112.773 173.358 113.331 173.597 114.04C173.835 114.748 173.955 115.636 173.955 116.705C173.955 117.739 173.856 118.657 173.659 119.46C173.466 120.259 173.186 120.934 172.818 121.483C172.455 122.032 172.011 122.449 171.489 122.733C170.97 123.017 170.383 123.159 169.727 123.159C169.076 123.159 168.494 123.03 167.983 122.773C167.475 122.511 167.059 122.15 166.733 121.688C166.411 121.222 166.205 120.682 166.114 120.068H167.5C167.625 120.602 167.873 121.044 168.244 121.392C168.619 121.737 169.114 121.909 169.727 121.909C170.625 121.909 171.333 121.517 171.852 120.733C172.375 119.949 172.636 118.841 172.636 117.409H172.545C172.333 117.727 172.081 118.002 171.79 118.233C171.498 118.464 171.174 118.642 170.818 118.767C170.462 118.892 170.083 118.955 169.682 118.955C169.015 118.955 168.403 118.79 167.847 118.46C167.294 118.127 166.85 117.67 166.517 117.091C166.188 116.508 166.023 115.841 166.023 115.091C166.023 114.379 166.182 113.727 166.5 113.136C166.822 112.542 167.273 112.068 167.852 111.716C168.436 111.364 169.121 111.193 169.909 111.205ZM169.909 112.455C169.432 112.455 169.002 112.574 168.619 112.812C168.241 113.047 167.939 113.366 167.716 113.767C167.496 114.165 167.386 114.606 167.386 115.091C167.386 115.576 167.492 116.017 167.705 116.415C167.92 116.809 168.214 117.123 168.585 117.358C168.96 117.589 169.386 117.705 169.864 117.705C170.223 117.705 170.559 117.634 170.869 117.494C171.18 117.35 171.451 117.155 171.682 116.909C171.917 116.659 172.1 116.377 172.233 116.062C172.366 115.744 172.432 115.413 172.432 115.068C172.432 114.614 172.322 114.187 172.102 113.79C171.886 113.392 171.587 113.07 171.205 112.824C170.826 112.578 170.394 112.455 169.909 112.455ZM182.493 123V111.364H189.516V112.614H183.903V116.545H189.153V117.795H183.903V121.75H189.607V123H182.493ZM195.242 123.205C194.689 123.205 194.187 123.1 193.737 122.892C193.286 122.68 192.928 122.375 192.663 121.977C192.398 121.576 192.265 121.091 192.265 120.523C192.265 120.023 192.364 119.617 192.561 119.307C192.757 118.992 193.021 118.746 193.35 118.568C193.68 118.39 194.043 118.258 194.441 118.17C194.843 118.08 195.246 118.008 195.651 117.955C196.182 117.886 196.612 117.835 196.941 117.801C197.275 117.763 197.517 117.701 197.668 117.614C197.824 117.527 197.901 117.375 197.901 117.159V117.114C197.901 116.553 197.748 116.117 197.441 115.807C197.138 115.496 196.678 115.341 196.061 115.341C195.42 115.341 194.918 115.481 194.555 115.761C194.191 116.042 193.936 116.341 193.788 116.659L192.515 116.205C192.742 115.674 193.045 115.261 193.424 114.966C193.807 114.667 194.223 114.458 194.674 114.341C195.129 114.22 195.576 114.159 196.015 114.159C196.295 114.159 196.617 114.193 196.981 114.261C197.348 114.326 197.703 114.46 198.043 114.665C198.388 114.869 198.674 115.178 198.901 115.591C199.129 116.004 199.242 116.557 199.242 117.25V123H197.901V121.818H197.833C197.742 122.008 197.591 122.21 197.379 122.426C197.167 122.642 196.884 122.826 196.532 122.977C196.18 123.129 195.75 123.205 195.242 123.205ZM195.447 122C195.977 122 196.424 121.896 196.788 121.688C197.155 121.479 197.432 121.21 197.617 120.881C197.807 120.551 197.901 120.205 197.901 119.841V118.614C197.845 118.682 197.72 118.744 197.526 118.801C197.337 118.854 197.117 118.902 196.867 118.943C196.621 118.981 196.381 119.015 196.146 119.045C195.915 119.072 195.727 119.095 195.583 119.114C195.235 119.159 194.909 119.233 194.606 119.335C194.307 119.434 194.064 119.583 193.879 119.784C193.697 119.981 193.606 120.25 193.606 120.591C193.606 121.057 193.778 121.409 194.123 121.648C194.471 121.883 194.913 122 195.447 122ZM208.672 116.227L207.467 116.568C207.391 116.367 207.28 116.172 207.132 115.983C206.988 115.79 206.791 115.631 206.541 115.506C206.291 115.381 205.971 115.318 205.581 115.318C205.047 115.318 204.602 115.441 204.245 115.688C203.893 115.93 203.717 116.239 203.717 116.614C203.717 116.947 203.838 117.21 204.081 117.403C204.323 117.597 204.702 117.758 205.217 117.886L206.513 118.205C207.293 118.394 207.874 118.684 208.257 119.074C208.639 119.46 208.831 119.958 208.831 120.568C208.831 121.068 208.687 121.515 208.399 121.909C208.115 122.303 207.717 122.614 207.206 122.841C206.694 123.068 206.1 123.182 205.422 123.182C204.531 123.182 203.795 122.989 203.211 122.602C202.628 122.216 202.259 121.652 202.103 120.909L203.376 120.591C203.497 121.061 203.727 121.413 204.064 121.648C204.405 121.883 204.85 122 205.399 122C206.024 122 206.52 121.867 206.888 121.602C207.259 121.333 207.444 121.011 207.444 120.636C207.444 120.333 207.338 120.08 207.126 119.875C206.914 119.667 206.588 119.511 206.149 119.409L204.694 119.068C203.895 118.879 203.308 118.585 202.933 118.188C202.562 117.786 202.376 117.284 202.376 116.682C202.376 116.189 202.514 115.754 202.791 115.375C203.071 114.996 203.452 114.699 203.933 114.483C204.418 114.267 204.967 114.159 205.581 114.159C206.444 114.159 207.122 114.348 207.615 114.727C208.111 115.106 208.463 115.606 208.672 116.227ZM215.445 114.273V115.409H210.922V114.273H215.445ZM212.24 112.182H213.581V120.5C213.581 120.879 213.636 121.163 213.746 121.352C213.859 121.538 214.003 121.663 214.178 121.727C214.356 121.788 214.543 121.818 214.74 121.818C214.888 121.818 215.009 121.811 215.104 121.795C215.198 121.777 215.274 121.761 215.331 121.75L215.604 122.955C215.513 122.989 215.386 123.023 215.223 123.057C215.06 123.095 214.854 123.114 214.604 123.114C214.225 123.114 213.854 123.032 213.49 122.869C213.13 122.706 212.831 122.458 212.592 122.125C212.357 121.792 212.24 121.371 212.24 120.864V112.182ZM227.243 111.205C227.721 111.208 228.198 111.299 228.675 111.477C229.153 111.655 229.588 111.951 229.982 112.364C230.376 112.773 230.692 113.331 230.931 114.04C231.17 114.748 231.289 115.636 231.289 116.705C231.289 117.739 231.19 118.657 230.993 119.46C230.8 120.259 230.52 120.934 230.153 121.483C229.789 122.032 229.346 122.449 228.823 122.733C228.304 123.017 227.717 123.159 227.062 123.159C226.41 123.159 225.829 123.03 225.317 122.773C224.81 122.511 224.393 122.15 224.067 121.688C223.745 121.222 223.539 120.682 223.448 120.068H224.834C224.959 120.602 225.207 121.044 225.579 121.392C225.954 121.737 226.448 121.909 227.062 121.909C227.959 121.909 228.668 121.517 229.187 120.733C229.709 119.949 229.971 118.841 229.971 117.409H229.88C229.668 117.727 229.416 118.002 229.124 118.233C228.832 118.464 228.509 118.642 228.153 118.767C227.796 118.892 227.418 118.955 227.016 118.955C226.35 118.955 225.738 118.79 225.181 118.46C224.628 118.127 224.185 117.67 223.851 117.091C223.522 116.508 223.357 115.841 223.357 115.091C223.357 114.379 223.516 113.727 223.834 113.136C224.156 112.542 224.607 112.068 225.187 111.716C225.77 111.364 226.456 111.193 227.243 111.205ZM227.243 112.455C226.766 112.455 226.336 112.574 225.954 112.812C225.575 113.047 225.274 113.366 225.05 113.767C224.831 114.165 224.721 114.606 224.721 115.091C224.721 115.576 224.827 116.017 225.039 116.415C225.255 116.809 225.548 117.123 225.92 117.358C226.295 117.589 226.721 117.705 227.198 117.705C227.558 117.705 227.893 117.634 228.204 117.494C228.514 117.35 228.785 117.155 229.016 116.909C229.251 116.659 229.435 116.377 229.567 116.062C229.7 115.744 229.766 115.413 229.766 115.068C229.766 114.614 229.656 114.187 229.437 113.79C229.221 113.392 228.921 113.07 228.539 112.824C228.16 112.578 227.728 112.455 227.243 112.455ZM238.414 111.364V123H237.005V112.841H236.937L234.096 114.727V113.295L237.005 111.364H238.414ZM248.765 116.227L247.561 116.568C247.485 116.367 247.373 116.172 247.226 115.983C247.082 115.79 246.885 115.631 246.635 115.506C246.385 115.381 246.065 115.318 245.674 115.318C245.14 115.318 244.695 115.441 244.339 115.688C243.987 115.93 243.811 116.239 243.811 116.614C243.811 116.947 243.932 117.21 244.174 117.403C244.417 117.597 244.796 117.758 245.311 117.886L246.606 118.205C247.387 118.394 247.968 118.684 248.351 119.074C248.733 119.46 248.924 119.958 248.924 120.568C248.924 121.068 248.78 121.515 248.493 121.909C248.209 122.303 247.811 122.614 247.299 122.841C246.788 123.068 246.193 123.182 245.515 123.182C244.625 123.182 243.888 122.989 243.305 122.602C242.722 122.216 242.352 121.652 242.197 120.909L243.47 120.591C243.591 121.061 243.82 121.413 244.157 121.648C244.498 121.883 244.943 122 245.493 122C246.118 122 246.614 121.867 246.981 121.602C247.352 121.333 247.538 121.011 247.538 120.636C247.538 120.333 247.432 120.08 247.22 119.875C247.008 119.667 246.682 119.511 246.243 119.409L244.788 119.068C243.989 118.879 243.402 118.585 243.027 118.188C242.655 117.786 242.47 117.284 242.47 116.682C242.47 116.189 242.608 115.754 242.885 115.375C243.165 114.996 243.546 114.699 244.027 114.483C244.512 114.267 245.061 114.159 245.674 114.159C246.538 114.159 247.216 114.348 247.709 114.727C248.205 115.106 248.557 115.606 248.765 116.227ZM255.538 114.273V115.409H251.016V114.273H255.538ZM252.334 112.182H253.675V120.5C253.675 120.879 253.73 121.163 253.839 121.352C253.953 121.538 254.097 121.663 254.271 121.727C254.449 121.788 254.637 121.818 254.834 121.818C254.982 121.818 255.103 121.811 255.197 121.795C255.292 121.777 255.368 121.761 255.425 121.75L255.697 122.955C255.607 122.989 255.48 123.023 255.317 123.057C255.154 123.095 254.947 123.114 254.697 123.114C254.319 123.114 253.947 123.032 253.584 122.869C253.224 122.706 252.925 122.458 252.686 122.125C252.451 121.792 252.334 121.371 252.334 120.864V112.182ZM270.201 114.273C270.133 113.697 269.856 113.25 269.371 112.932C268.886 112.614 268.292 112.455 267.587 112.455C267.072 112.455 266.621 112.538 266.235 112.705C265.852 112.871 265.553 113.1 265.337 113.392C265.125 113.684 265.019 114.015 265.019 114.386C265.019 114.697 265.093 114.964 265.241 115.188C265.392 115.407 265.585 115.591 265.82 115.739C266.055 115.883 266.301 116.002 266.559 116.097C266.816 116.187 267.053 116.261 267.269 116.318L268.451 116.636C268.754 116.716 269.091 116.826 269.462 116.966C269.837 117.106 270.195 117.297 270.536 117.54C270.881 117.778 271.165 118.085 271.388 118.46C271.612 118.835 271.724 119.295 271.724 119.841C271.724 120.47 271.559 121.038 271.229 121.545C270.904 122.053 270.426 122.456 269.797 122.756C269.172 123.055 268.413 123.205 267.519 123.205C266.686 123.205 265.964 123.07 265.354 122.801C264.748 122.532 264.271 122.157 263.922 121.676C263.578 121.195 263.383 120.636 263.337 120H264.792C264.83 120.439 264.977 120.803 265.235 121.091C265.496 121.375 265.826 121.587 266.224 121.727C266.625 121.864 267.057 121.932 267.519 121.932C268.057 121.932 268.54 121.845 268.968 121.67C269.396 121.492 269.735 121.246 269.985 120.932C270.235 120.614 270.36 120.242 270.36 119.818C270.36 119.432 270.252 119.117 270.036 118.875C269.82 118.633 269.536 118.436 269.184 118.284C268.832 118.133 268.451 118 268.042 117.886L266.61 117.477C265.701 117.216 264.981 116.843 264.451 116.358C263.921 115.873 263.655 115.239 263.655 114.455C263.655 113.803 263.832 113.235 264.184 112.75C264.54 112.261 265.017 111.883 265.616 111.614C266.218 111.341 266.89 111.205 267.633 111.205C268.383 111.205 269.049 111.339 269.633 111.608C270.216 111.873 270.678 112.237 271.019 112.699C271.364 113.161 271.546 113.686 271.564 114.273H270.201ZM278.454 114.273V115.409H273.931V114.273H278.454ZM275.249 112.182H276.59V120.5C276.59 120.879 276.645 121.163 276.755 121.352C276.869 121.538 277.013 121.663 277.187 121.727C277.365 121.788 277.552 121.818 277.749 121.818C277.897 121.818 278.018 121.811 278.113 121.795C278.208 121.777 278.284 121.761 278.34 121.75L278.613 122.955C278.522 122.989 278.395 123.023 278.232 123.057C278.07 123.095 277.863 123.114 277.613 123.114C277.234 123.114 276.863 123.032 276.499 122.869C276.14 122.706 275.84 122.458 275.602 122.125C275.367 121.792 275.249 121.371 275.249 120.864V112.182ZM281.271 123V114.273H282.566V115.591H282.657C282.816 115.159 283.104 114.809 283.521 114.54C283.938 114.271 284.407 114.136 284.93 114.136C285.029 114.136 285.152 114.138 285.299 114.142C285.447 114.146 285.559 114.152 285.635 114.159V115.523C285.589 115.511 285.485 115.494 285.322 115.472C285.163 115.445 284.995 115.432 284.816 115.432C284.392 115.432 284.013 115.521 283.68 115.699C283.351 115.873 283.089 116.116 282.896 116.426C282.707 116.733 282.612 117.083 282.612 117.477V123H281.271ZM291.418 123.182C290.577 123.182 289.851 122.996 289.241 122.625C288.635 122.25 288.168 121.727 287.838 121.057C287.512 120.383 287.349 119.598 287.349 118.705C287.349 117.811 287.512 117.023 287.838 116.341C288.168 115.655 288.626 115.121 289.213 114.739C289.804 114.352 290.493 114.159 291.281 114.159C291.736 114.159 292.185 114.235 292.628 114.386C293.071 114.538 293.474 114.784 293.838 115.125C294.202 115.462 294.491 115.909 294.707 116.466C294.923 117.023 295.031 117.708 295.031 118.523V119.091H288.304V117.932H293.668C293.668 117.439 293.569 117 293.372 116.614C293.179 116.227 292.902 115.922 292.543 115.699C292.187 115.475 291.766 115.364 291.281 115.364C290.747 115.364 290.285 115.496 289.895 115.761C289.509 116.023 289.211 116.364 289.003 116.784C288.795 117.205 288.69 117.655 288.69 118.136V118.909C288.69 119.568 288.804 120.127 289.031 120.585C289.262 121.04 289.582 121.386 289.991 121.625C290.401 121.86 290.876 121.977 291.418 121.977C291.77 121.977 292.088 121.928 292.372 121.83C292.66 121.727 292.908 121.576 293.116 121.375C293.325 121.17 293.486 120.917 293.599 120.614L294.895 120.977C294.759 121.417 294.529 121.803 294.207 122.136C293.885 122.466 293.488 122.723 293.014 122.909C292.541 123.091 292.009 123.182 291.418 123.182ZM301.53 123.182C300.689 123.182 299.964 122.996 299.354 122.625C298.748 122.25 298.28 121.727 297.951 121.057C297.625 120.383 297.462 119.598 297.462 118.705C297.462 117.811 297.625 117.023 297.951 116.341C298.28 115.655 298.738 115.121 299.326 114.739C299.916 114.352 300.606 114.159 301.394 114.159C301.848 114.159 302.297 114.235 302.74 114.386C303.184 114.538 303.587 114.784 303.951 115.125C304.314 115.462 304.604 115.909 304.82 116.466C305.036 117.023 305.144 117.708 305.144 118.523V119.091H298.416V117.932H303.78C303.78 117.439 303.682 117 303.485 116.614C303.291 116.227 303.015 115.922 302.655 115.699C302.299 115.475 301.879 115.364 301.394 115.364C300.86 115.364 300.398 115.496 300.007 115.761C299.621 116.023 299.324 116.364 299.115 116.784C298.907 117.205 298.803 117.655 298.803 118.136V118.909C298.803 119.568 298.916 120.127 299.144 120.585C299.375 121.04 299.695 121.386 300.104 121.625C300.513 121.86 300.988 121.977 301.53 121.977C301.882 121.977 302.201 121.928 302.485 121.83C302.773 121.727 303.021 121.576 303.229 121.375C303.437 121.17 303.598 120.917 303.712 120.614L305.007 120.977C304.871 121.417 304.642 121.803 304.32 122.136C303.998 122.466 303.6 122.723 303.127 122.909C302.653 123.091 302.121 123.182 301.53 123.182ZM311.779 114.273V115.409H307.256V114.273H311.779ZM308.574 112.182H309.915V120.5C309.915 120.879 309.97 121.163 310.08 121.352C310.194 121.538 310.338 121.663 310.512 121.727C310.69 121.788 310.877 121.818 311.074 121.818C311.222 121.818 311.343 121.811 311.438 121.795C311.533 121.777 311.609 121.761 311.665 121.75L311.938 122.955C311.847 122.989 311.72 123.023 311.557 123.057C311.395 123.095 311.188 123.114 310.938 123.114C310.559 123.114 310.188 123.032 309.824 122.869C309.465 122.706 309.165 122.458 308.927 122.125C308.692 121.792 308.574 121.371 308.574 120.864V112.182Z" fill="#717171"/>
<path d="M44.2273 117.182C44.2273 118.409 44.0057 119.47 43.5625 120.364C43.1193 121.258 42.5114 121.947 41.7386 122.432C40.9659 122.917 40.0833 123.159 39.0909 123.159C38.0985 123.159 37.2159 122.917 36.4432 122.432C35.6705 121.947 35.0625 121.258 34.6193 120.364C34.1761 119.47 33.9545 118.409 33.9545 117.182C33.9545 115.955 34.1761 114.894 34.6193 114C35.0625 113.106 35.6705 112.417 36.4432 111.932C37.2159 111.447 38.0985 111.205 39.0909 111.205C40.0833 111.205 40.9659 111.447 41.7386 111.932C42.5114 112.417 43.1193 113.106 43.5625 114C44.0057 114.894 44.2273 115.955 44.2273 117.182ZM42.8636 117.182C42.8636 116.174 42.6951 115.324 42.358 114.631C42.0246 113.938 41.572 113.413 41 113.057C40.4318 112.701 39.7955 112.523 39.0909 112.523C38.3864 112.523 37.7481 112.701 37.1761 113.057C36.608 113.413 36.1553 113.938 35.8182 114.631C35.4848 115.324 35.3182 116.174 35.3182 117.182C35.3182 118.189 35.4848 119.04 35.8182 119.733C36.1553 120.426 36.608 120.951 37.1761 121.307C37.7481 121.663 38.3864 121.841 39.0909 121.841C39.7955 121.841 40.4318 121.663 41 121.307C41.572 120.951 42.0246 120.426 42.358 119.733C42.6951 119.04 42.8636 118.189 42.8636 117.182ZM51.1011 114.273V115.409H46.3966V114.273H51.1011ZM47.8057 123V113.068C47.8057 112.568 47.9231 112.152 48.158 111.818C48.3928 111.485 48.6977 111.235 49.0727 111.068C49.4477 110.902 49.8436 110.818 50.2602 110.818C50.5898 110.818 50.8587 110.845 51.067 110.898C51.2754 110.951 51.4307 111 51.533 111.045L51.1466 112.205C51.0784 112.182 50.9837 112.153 50.8625 112.119C50.7451 112.085 50.5898 112.068 50.3966 112.068C49.9534 112.068 49.6333 112.18 49.4364 112.403C49.2432 112.627 49.1466 112.955 49.1466 113.386V123H47.8057ZM57.6668 114.273V115.409H52.9622V114.273H57.6668ZM54.3713 123V113.068C54.3713 112.568 54.4887 112.152 54.7236 111.818C54.9584 111.485 55.2634 111.235 55.6384 111.068C56.0134 110.902 56.4092 110.818 56.8259 110.818C57.1554 110.818 57.4243 110.845 57.6327 110.898C57.841 110.951 57.9963 111 58.0986 111.045L57.7122 112.205C57.644 112.182 57.5493 112.153 57.4281 112.119C57.3107 112.085 57.1554 112.068 56.9622 112.068C56.519 112.068 56.199 112.18 56.002 112.403C55.8088 112.627 55.7122 112.955 55.7122 113.386V123H54.3713ZM60.346 123V114.273H61.6869V123H60.346ZM61.0278 112.818C60.7665 112.818 60.5411 112.729 60.3517 112.551C60.1661 112.373 60.0733 112.159 60.0733 111.909C60.0733 111.659 60.1661 111.445 60.3517 111.267C60.5411 111.089 60.7665 111 61.0278 111C61.2892 111 61.5127 111.089 61.6983 111.267C61.8877 111.445 61.9824 111.659 61.9824 111.909C61.9824 112.159 61.8877 112.373 61.6983 112.551C61.5127 112.729 61.2892 112.818 61.0278 112.818ZM68.4884 123.182C67.6702 123.182 66.9656 122.989 66.3747 122.602C65.7838 122.216 65.3293 121.684 65.0111 121.006C64.6929 120.328 64.5338 119.553 64.5338 118.682C64.5338 117.795 64.6967 117.013 65.0224 116.335C65.352 115.653 65.8103 115.121 66.3974 114.739C66.9884 114.352 67.6777 114.159 68.4656 114.159C69.0793 114.159 69.6323 114.273 70.1247 114.5C70.6171 114.727 71.0206 115.045 71.3349 115.455C71.6493 115.864 71.8444 116.341 71.9202 116.886H70.5793C70.477 116.489 70.2497 116.136 69.8974 115.83C69.549 115.519 69.0793 115.364 68.4884 115.364C67.9656 115.364 67.5073 115.5 67.1134 115.773C66.7232 116.042 66.4183 116.422 66.1986 116.915C65.9827 117.403 65.8747 117.977 65.8747 118.636C65.8747 119.311 65.9808 119.898 66.1929 120.398C66.4088 120.898 66.7118 121.286 67.102 121.562C67.4959 121.839 67.9581 121.977 68.4884 121.977C68.8368 121.977 69.1531 121.917 69.4372 121.795C69.7213 121.674 69.9618 121.5 70.1588 121.273C70.3558 121.045 70.4959 120.773 70.5793 120.455H71.9202C71.8444 120.97 71.6569 121.434 71.3577 121.847C71.0622 122.256 70.6702 122.581 70.1815 122.824C69.6967 123.062 69.1323 123.182 68.4884 123.182ZM78.3395 123.182C77.4986 123.182 76.7732 122.996 76.1634 122.625C75.5573 122.25 75.0895 121.727 74.7599 121.057C74.4342 120.383 74.2713 119.598 74.2713 118.705C74.2713 117.811 74.4342 117.023 74.7599 116.341C75.0895 115.655 75.5478 115.121 76.1349 114.739C76.7259 114.352 77.4152 114.159 78.2031 114.159C78.6577 114.159 79.1065 114.235 79.5497 114.386C79.9929 114.538 80.3963 114.784 80.7599 115.125C81.1236 115.462 81.4134 115.909 81.6293 116.466C81.8452 117.023 81.9531 117.708 81.9531 118.523V119.091H75.2259V117.932H80.5895C80.5895 117.439 80.491 117 80.294 116.614C80.1009 116.227 79.8243 115.922 79.4645 115.699C79.1084 115.475 78.688 115.364 78.2031 115.364C77.669 115.364 77.2069 115.496 76.8168 115.761C76.4304 116.023 76.133 116.364 75.9247 116.784C75.7164 117.205 75.6122 117.655 75.6122 118.136V118.909C75.6122 119.568 75.7259 120.127 75.9531 120.585C76.1842 121.04 76.5043 121.386 76.9134 121.625C77.3224 121.86 77.7978 121.977 78.3395 121.977C78.6918 121.977 79.0099 121.928 79.294 121.83C79.5819 121.727 79.83 121.576 80.0384 121.375C80.2467 121.17 80.4077 120.917 80.5213 120.614L81.8168 120.977C81.6804 121.417 81.4512 121.803 81.1293 122.136C80.8073 122.466 80.4096 122.723 79.9361 122.909C79.4626 123.091 78.9304 123.182 78.3395 123.182ZM92.6611 123.205C92.108 123.205 91.6062 123.1 91.1554 122.892C90.7046 122.68 90.3467 122.375 90.0815 121.977C89.8164 121.576 89.6838 121.091 89.6838 120.523C89.6838 120.023 89.7823 119.617 89.9793 119.307C90.1762 118.992 90.4395 118.746 90.769 118.568C91.0986 118.39 91.4622 118.258 91.8599 118.17C92.2615 118.08 92.6649 118.008 93.0702 117.955C93.6005 117.886 94.0304 117.835 94.3599 117.801C94.6933 117.763 94.9357 117.701 95.0872 117.614C95.2425 117.527 95.3202 117.375 95.3202 117.159V117.114C95.3202 116.553 95.1668 116.117 94.8599 115.807C94.5569 115.496 94.0967 115.341 93.4793 115.341C92.8391 115.341 92.3372 115.481 91.9736 115.761C91.6099 116.042 91.3543 116.341 91.2065 116.659L89.9338 116.205C90.1611 115.674 90.4641 115.261 90.8429 114.966C91.2255 114.667 91.6421 114.458 92.0929 114.341C92.5474 114.22 92.9944 114.159 93.4338 114.159C93.7141 114.159 94.0361 114.193 94.3997 114.261C94.7671 114.326 95.1213 114.46 95.4622 114.665C95.8069 114.869 96.0929 115.178 96.3202 115.591C96.5474 116.004 96.6611 116.557 96.6611 117.25V123H95.3202V121.818H95.252C95.1611 122.008 95.0096 122.21 94.7974 122.426C94.5853 122.642 94.3031 122.826 93.9509 122.977C93.5986 123.129 93.1687 123.205 92.6611 123.205ZM92.8656 122C93.3959 122 93.8429 121.896 94.2065 121.688C94.574 121.479 94.8505 121.21 95.0361 120.881C95.2255 120.551 95.3202 120.205 95.3202 119.841V118.614C95.2634 118.682 95.1384 118.744 94.9452 118.801C94.7558 118.854 94.5361 118.902 94.2861 118.943C94.0399 118.981 93.7993 119.015 93.5645 119.045C93.3334 119.072 93.1459 119.095 93.002 119.114C92.6535 119.159 92.3277 119.233 92.0247 119.335C91.7255 119.434 91.483 119.583 91.2974 119.784C91.1156 119.981 91.0247 120.25 91.0247 120.591C91.0247 121.057 91.1971 121.409 91.5418 121.648C91.8902 121.883 92.3315 122 92.8656 122ZM103.204 123.182C102.477 123.182 101.835 122.998 101.278 122.631C100.721 122.259 100.285 121.737 99.971 121.062C99.6566 120.384 99.4994 119.583 99.4994 118.659C99.4994 117.742 99.6566 116.947 99.971 116.273C100.285 115.598 100.723 115.078 101.284 114.71C101.844 114.343 102.492 114.159 103.227 114.159C103.795 114.159 104.244 114.254 104.573 114.443C104.907 114.629 105.16 114.841 105.335 115.08C105.513 115.314 105.651 115.508 105.749 115.659H105.863V111.364H107.204V123H105.909V121.659H105.749C105.651 121.818 105.511 122.019 105.329 122.261C105.147 122.5 104.888 122.714 104.551 122.903C104.213 123.089 103.765 123.182 103.204 123.182ZM103.386 121.977C103.924 121.977 104.378 121.837 104.749 121.557C105.121 121.273 105.403 120.881 105.596 120.381C105.789 119.877 105.886 119.295 105.886 118.636C105.886 117.985 105.791 117.415 105.602 116.926C105.412 116.434 105.132 116.051 104.761 115.778C104.39 115.502 103.931 115.364 103.386 115.364C102.818 115.364 102.344 115.509 101.965 115.801C101.59 116.089 101.308 116.481 101.119 116.977C100.933 117.47 100.84 118.023 100.84 118.636C100.84 119.258 100.935 119.822 101.124 120.33C101.318 120.833 101.602 121.235 101.977 121.534C102.355 121.83 102.825 121.977 103.386 121.977ZM110.646 123V114.273H111.941V115.591H112.032C112.191 115.159 112.479 114.809 112.896 114.54C113.313 114.271 113.782 114.136 114.305 114.136C114.404 114.136 114.527 114.138 114.674 114.142C114.822 114.146 114.934 114.152 115.01 114.159V115.523C114.964 115.511 114.86 115.494 114.697 115.472C114.538 115.445 114.37 115.432 114.191 115.432C113.767 115.432 113.388 115.521 113.055 115.699C112.726 115.873 112.464 116.116 112.271 116.426C112.082 116.733 111.987 117.083 111.987 117.477V123H110.646ZM120.793 123.182C119.952 123.182 119.226 122.996 118.616 122.625C118.01 122.25 117.543 121.727 117.213 121.057C116.887 120.383 116.724 119.598 116.724 118.705C116.724 117.811 116.887 117.023 117.213 116.341C117.543 115.655 118.001 115.121 118.588 114.739C119.179 114.352 119.868 114.159 120.656 114.159C121.111 114.159 121.56 114.235 122.003 114.386C122.446 114.538 122.849 114.784 123.213 115.125C123.577 115.462 123.866 115.909 124.082 116.466C124.298 117.023 124.406 117.708 124.406 118.523V119.091H117.679V117.932H123.043C123.043 117.439 122.944 117 122.747 116.614C122.554 116.227 122.277 115.922 121.918 115.699C121.562 115.475 121.141 115.364 120.656 115.364C120.122 115.364 119.66 115.496 119.27 115.761C118.884 116.023 118.586 116.364 118.378 116.784C118.17 117.205 118.065 117.655 118.065 118.136V118.909C118.065 119.568 118.179 120.127 118.406 120.585C118.637 121.04 118.957 121.386 119.366 121.625C119.776 121.86 120.251 121.977 120.793 121.977C121.145 121.977 121.463 121.928 121.747 121.83C122.035 121.727 122.283 121.576 122.491 121.375C122.7 121.17 122.861 120.917 122.974 120.614L124.27 120.977C124.134 121.417 123.904 121.803 123.582 122.136C123.26 122.466 122.863 122.723 122.389 122.909C121.916 123.091 121.384 123.182 120.793 123.182ZM133.428 116.227L132.223 116.568C132.148 116.367 132.036 116.172 131.888 115.983C131.744 115.79 131.547 115.631 131.297 115.506C131.047 115.381 130.727 115.318 130.337 115.318C129.803 115.318 129.358 115.441 129.002 115.688C128.649 115.93 128.473 116.239 128.473 116.614C128.473 116.947 128.595 117.21 128.837 117.403C129.079 117.597 129.458 117.758 129.973 117.886L131.269 118.205C132.049 118.394 132.63 118.684 133.013 119.074C133.396 119.46 133.587 119.958 133.587 120.568C133.587 121.068 133.443 121.515 133.155 121.909C132.871 122.303 132.473 122.614 131.962 122.841C131.451 123.068 130.856 123.182 130.178 123.182C129.288 123.182 128.551 122.989 127.968 122.602C127.384 122.216 127.015 121.652 126.86 120.909L128.132 120.591C128.254 121.061 128.483 121.413 128.82 121.648C129.161 121.883 129.606 122 130.155 122C130.78 122 131.276 121.867 131.644 121.602C132.015 121.333 132.201 121.011 132.201 120.636C132.201 120.333 132.095 120.08 131.882 119.875C131.67 119.667 131.345 119.511 130.905 119.409L129.451 119.068C128.651 118.879 128.064 118.585 127.689 118.188C127.318 117.786 127.132 117.284 127.132 116.682C127.132 116.189 127.271 115.754 127.547 115.375C127.827 114.996 128.208 114.699 128.689 114.483C129.174 114.267 129.723 114.159 130.337 114.159C131.201 114.159 131.879 114.348 132.371 114.727C132.867 115.106 133.22 115.606 133.428 116.227ZM142.587 116.227L141.383 116.568C141.307 116.367 141.195 116.172 141.047 115.983C140.904 115.79 140.707 115.631 140.457 115.506C140.207 115.381 139.886 115.318 139.496 115.318C138.962 115.318 138.517 115.441 138.161 115.688C137.809 115.93 137.633 116.239 137.633 116.614C137.633 116.947 137.754 117.21 137.996 117.403C138.239 117.597 138.618 117.758 139.133 117.886L140.428 118.205C141.208 118.394 141.79 118.684 142.172 119.074C142.555 119.46 142.746 119.958 142.746 120.568C142.746 121.068 142.602 121.515 142.314 121.909C142.03 122.303 141.633 122.614 141.121 122.841C140.61 123.068 140.015 123.182 139.337 123.182C138.447 123.182 137.71 122.989 137.127 122.602C136.544 122.216 136.174 121.652 136.019 120.909L137.292 120.591C137.413 121.061 137.642 121.413 137.979 121.648C138.32 121.883 138.765 122 139.314 122C139.939 122 140.436 121.867 140.803 121.602C141.174 121.333 141.36 121.011 141.36 120.636C141.36 120.333 141.254 120.08 141.042 119.875C140.83 119.667 140.504 119.511 140.064 119.409L138.61 119.068C137.811 118.879 137.224 118.585 136.849 118.188C136.477 117.786 136.292 117.284 136.292 116.682C136.292 116.189 136.43 115.754 136.707 115.375C136.987 114.996 137.368 114.699 137.849 114.483C138.333 114.267 138.883 114.159 139.496 114.159C140.36 114.159 141.038 114.348 141.53 114.727C142.027 115.106 142.379 115.606 142.587 116.227ZM146.542 123.091C146.262 123.091 146.021 122.991 145.82 122.79C145.62 122.589 145.519 122.348 145.519 122.068C145.519 121.788 145.62 121.547 145.82 121.347C146.021 121.146 146.262 121.045 146.542 121.045C146.822 121.045 147.063 121.146 147.264 121.347C147.464 121.547 147.565 121.788 147.565 122.068C147.565 122.254 147.517 122.424 147.423 122.58C147.332 122.735 147.209 122.86 147.053 122.955C146.902 123.045 146.731 123.091 146.542 123.091ZM146.542 116.614C146.262 116.614 146.021 116.513 145.82 116.312C145.62 116.112 145.519 115.871 145.519 115.591C145.519 115.311 145.62 115.07 145.82 114.869C146.021 114.669 146.262 114.568 146.542 114.568C146.822 114.568 147.063 114.669 147.264 114.869C147.464 115.07 147.565 115.311 147.565 115.591C147.565 115.777 147.517 115.947 147.423 116.102C147.332 116.258 147.209 116.383 147.053 116.477C146.902 116.568 146.731 116.614 146.542 116.614Z" fill="black"/>
</svg>
